<svg version="1.1" id="Layer_1" xmlns="http://www.w3.org/2000/svg" xmlns:xlink="http://www.w3.org/1999/xlink" x="0px" y="0px"
	 width="100%" viewBox="0 0 240 256" enable-background="new 0 0 240 256" xml:space="preserve">
<path fill="#000000" opacity="1.000000" stroke="none" 
	d="
M31.000000,1.000000 
	C100.928871,1.000000 170.857742,1.000000 240.893311,1.000000 
	C240.893311,86.333221 240.893311,171.666595 240.893311,257.000000 
	C238.310028,257.000000 235.646072,257.000000 232.492218,256.739807 
	C231.883652,254.993500 231.722412,253.509323 231.653076,252.020874 
	C231.172348,241.702927 228.957657,239.594437 218.575531,239.651917 
	C217.577637,239.657440 216.581268,239.797516 215.582733,239.843399 
	C206.625107,240.255188 197.691238,241.868088 188.700470,239.862961 
	C183.803085,238.770752 179.085571,240.268967 174.530823,241.927124 
	C168.535583,244.109726 162.362564,245.616379 156.053314,246.112015 
	C133.994354,247.844849 111.934258,249.687485 89.778076,247.333405 
	C82.480095,246.557983 75.164764,246.429871 68.972359,241.595779 
	C67.466301,240.420044 65.342621,239.981308 63.450905,239.362762 
	C52.847931,235.895920 47.157257,227.418854 48.362453,216.425873 
	C49.001835,210.593903 49.070148,204.777420 48.550819,198.961014 
	C48.232529,195.396179 48.224201,191.735367 49.785782,188.645569 
	C55.069233,178.191544 53.618198,167.512787 52.684231,156.413361 
	C51.774300,145.599564 45.430984,140.576447 37.315441,135.630859 
	C28.971550,130.546127 19.307701,125.925156 20.883385,113.288307 
	C21.000368,112.350121 20.595795,111.315102 20.306797,110.363632 
	C19.104012,106.403664 19.414835,102.649590 20.682302,98.641861 
	C22.522934,92.821785 25.403566,86.747826 23.329662,80.635300 
	C21.231251,74.450531 20.167099,68.056892 18.306036,61.844227 
	C16.820475,56.885071 15.236930,52.292549 11.701005,48.132099 
	C6.703547,42.251984 6.996583,36.381924 12.114683,33.018566 
	C19.167398,28.383881 21.661819,21.851145 21.943888,13.969276 
	C22.100834,9.583722 23.877527,6.286099 28.036665,4.482034 
	C29.580633,3.812324 31.198254,3.168890 31.000000,1.000000 
M80.407761,214.809601 
	C78.802559,214.600052 77.197357,214.390503 75.249390,214.136200 
	C74.689735,209.301682 75.043190,203.556396 76.567596,200.305969 
	C78.913467,195.303925 79.642685,192.299576 75.706596,188.471115 
	C74.586342,187.381470 74.940971,185.643036 74.781044,184.162170 
	C74.675003,183.180252 74.569588,182.063126 72.735153,182.583893 
	C72.324158,185.915558 74.014000,189.075867 73.628227,192.636185 
	C72.663223,201.542297 72.544388,210.553116 72.378578,219.527313 
	C72.296059,223.993607 76.027954,229.126816 79.080635,228.550522 
	C84.110802,227.600922 88.086105,230.494385 92.596375,231.295181 
	C94.746513,231.676941 96.657845,232.784439 99.069153,233.057632 
	C105.518250,233.788315 111.931450,231.580734 118.382019,233.354675 
	C120.446434,233.922394 123.327385,233.870056 124.898582,231.798721 
	C126.915367,229.139954 129.639572,228.767899 132.457184,228.897064 
	C140.559799,229.268448 148.646805,228.833496 156.739304,228.798447 
	C167.937576,228.749939 169.364777,227.547852 168.779007,216.193954 
	C168.710373,214.863678 168.721939,213.506531 168.450684,212.213379 
	C167.226883,206.379150 167.739410,200.634293 169.082703,194.898438 
	C169.345337,193.777084 169.735001,192.469177 169.408066,191.460632 
	C167.009598,184.061890 170.898071,176.239990 167.813690,168.898972 
	C167.516968,168.192749 167.621140,167.211975 167.810852,166.424057 
	C169.563507,159.144363 167.787292,151.845703 167.998825,144.562851 
	C168.119217,140.418243 168.638962,136.277344 167.882645,132.140533 
	C167.664474,130.947174 167.417496,129.548508 165.867371,129.939575 
	C164.395248,130.310974 164.402740,131.508957 165.223267,132.706360 
	C166.826401,135.045914 165.558807,135.835236 163.476974,136.321655 
	C159.586151,128.988510 159.586151,128.988510 161.119019,124.380508 
	C157.984299,129.361237 151.531769,132.320160 152.352753,139.718796 
	C152.561081,141.596237 152.539703,143.368576 150.160034,144.112518 
	C146.647461,145.210632 145.928986,148.607101 147.029526,150.987595 
	C149.720596,156.808456 148.194305,162.685455 148.459183,168.531189 
	C149.230621,185.555252 146.047073,192.069489 132.371002,201.706818 
	C131.801605,202.108078 131.349304,203.147568 131.386642,203.861237 
	C131.631256,208.538040 128.894760,212.417969 128.003021,216.823212 
	C126.890388,222.319626 123.094666,223.611572 119.253632,220.734650 
	C118.991127,217.965759 123.069786,218.109344 122.878357,214.476227 
	C117.619942,216.158325 112.348213,217.119476 108.254013,220.594727 
	C105.539070,222.899277 103.378075,222.489700 102.426781,219.766403 
	C101.627182,217.477386 100.345734,215.031784 101.335846,212.097458 
	C102.209831,209.507233 101.596107,206.645050 99.554947,204.035034 
	C97.184998,206.208527 92.812622,205.730087 92.811615,210.006317 
	C92.810638,214.159180 89.826836,215.999130 87.280998,218.326431 
	C86.019508,219.479630 84.748497,219.930237 83.213684,219.220703 
	C81.402672,218.383453 80.125092,217.180084 81.490601,215.270096 
	C84.167656,218.205750 86.818222,217.435181 86.722397,213.892319 
	C86.568802,208.213272 89.151276,203.823135 91.419914,199.134964 
	C91.932030,198.076675 92.300835,196.824982 90.707840,196.246735 
	C89.322968,195.744034 88.554886,196.565186 87.976883,197.702744 
	C86.711029,200.194000 85.464645,202.696579 84.129448,205.150528 
	C83.531616,206.249268 83.096474,207.442947 83.911079,208.407349 
	C87.557709,212.724472 83.711014,213.580429 80.407761,214.809601 
M99.854485,37.641697 
	C101.199234,36.724358 102.623924,36.112228 103.759972,37.804764 
	C109.534348,46.407722 118.393059,46.260471 127.030571,45.404350 
	C132.135452,44.898369 137.682693,43.900963 140.469162,38.208843 
	C141.069138,36.983242 142.665176,35.760494 144.270142,36.418571 
	C148.878616,38.308189 153.846878,39.823860 157.738876,42.735943 
	C159.567551,44.104198 159.251221,48.339256 159.902817,51.256725 
	C157.142410,52.230633 155.744278,50.803810 154.334717,49.340969 
	C152.603134,47.543938 150.937454,45.664494 149.058456,44.033623 
	C147.078659,42.315281 144.942215,41.579170 143.332214,44.597580 
	C142.662247,45.853607 145.330978,60.450241 146.529327,61.204674 
	C148.773331,62.617424 151.178696,63.771389 153.492081,65.077034 
	C157.216843,67.179245 160.869827,73.791260 159.785278,77.767433 
	C158.708786,81.714088 158.719009,84.554375 163.248215,85.290192 
	C163.248215,87.714569 162.932266,89.774704 163.325424,91.689224 
	C163.858459,94.284843 160.480301,94.546005 160.780182,97.214058 
	C161.653137,104.980743 165.272034,112.390244 163.498520,120.125908 
	C167.691498,122.733475 168.149780,117.949425 170.426041,117.041061 
	C171.971039,117.942970 172.181366,119.267113 172.108429,120.604927 
	C171.842484,125.483681 174.940582,127.796341 178.988342,128.158203 
	C187.600296,128.928101 194.343216,122.787933 202.321106,120.843262 
	C203.901215,120.458099 205.849518,118.326004 208.131348,117.846596 
	C211.506256,117.137527 215.781662,111.556450 216.378555,108.174088 
	C217.606079,101.218292 211.420364,96.905983 210.575409,90.748848 
	C210.540421,90.493935 210.158005,90.196220 209.871811,90.079727 
	C205.058945,88.120651 204.164398,82.614777 203.138000,79.200874 
	C201.448715,73.582169 198.016098,68.967545 196.032364,63.600971 
	C193.680847,57.239460 186.952484,53.255207 182.352264,48.028484 
	C181.884659,47.497223 180.808105,47.204033 180.056030,47.270962 
	C176.134186,47.619980 173.049881,45.704510 169.817322,43.931377 
	C165.228195,41.414154 160.193680,39.520748 155.384628,37.856361 
	C149.812164,35.927761 146.396164,32.057003 141.823944,28.688671 
	C137.589264,28.398453 134.719421,33.101215 129.962082,32.894089 
	C122.187988,32.555618 114.406319,34.125675 106.595802,32.586136 
	C103.176369,31.912130 99.284431,31.698505 97.474762,35.743023 
	C96.127892,38.753185 93.966019,39.636505 91.077423,39.142349 
	C88.717484,38.738640 88.466324,39.687160 89.076340,41.804684 
	C92.805565,41.338093 95.974670,39.505699 99.854485,37.641697 
M147.088409,135.859726 
	C148.311920,134.516876 149.643097,133.255524 150.735001,131.813049 
	C152.605789,129.341614 154.290039,126.069809 153.302490,123.476852 
	C152.323624,120.906715 150.359695,118.361832 148.689362,115.254150 
	C147.578339,118.216873 146.242523,120.508408 144.826157,122.229187 
	C142.773895,124.722519 141.819672,128.889282 139.252655,129.739380 
	C135.397842,131.015945 134.743103,133.708435 133.617203,136.552750 
	C132.186661,140.166702 133.409561,144.551468 131.620728,147.723770 
	C127.503822,155.024628 130.055237,163.008087 128.353821,170.525208 
	C127.526794,174.179062 128.612610,178.265854 128.891785,183.206146 
	C131.926422,179.614334 135.378784,180.225586 138.614273,179.825775 
	C141.641022,179.451721 144.027664,178.425201 141.811401,174.708496 
	C141.075439,173.474274 140.784546,172.113632 141.300186,170.887222 
	C143.369690,165.964890 142.511734,160.803024 142.923645,155.730438 
	C143.452652,149.215607 143.442413,142.497696 147.088409,135.859726 
M50.308640,73.896614 
	C51.641941,71.223557 52.953571,68.539436 54.312794,65.879631 
	C57.767040,59.120186 60.417809,51.660351 68.743271,49.087109 
	C72.546394,47.911633 76.349594,46.736019 80.161812,45.590580 
	C82.012123,45.034622 84.085861,44.930607 85.364639,42.835159 
	C83.384048,41.651215 81.457176,42.263805 79.495529,42.304298 
	C74.477669,42.407875 71.862053,47.203064 67.258080,48.245338 
	C65.722000,48.593082 64.054115,48.264748 62.263332,49.732819 
	C55.964088,54.896912 52.861790,62.054565 49.141850,68.807655 
	C47.933815,71.000679 45.921608,72.771065 45.273636,75.108749 
	C42.357609,85.628891 36.578083,94.595078 30.705067,103.599106 
	C28.665857,106.725449 27.911465,110.639999 32.128464,113.223053 
	C41.060188,118.694038 50.806698,122.662117 60.355911,126.709122 
	C65.083870,128.712845 70.764923,128.716446 74.715492,133.226151 
	C76.067284,128.790680 76.113174,127.484833 74.104652,124.853889 
	C72.356010,122.563347 71.885269,120.931122 74.012917,118.359970 
	C77.591522,114.035362 76.156960,110.331482 70.268646,107.886848 
	C70.575600,110.326714 70.986351,112.599274 71.126152,114.888382 
	C71.549843,121.826286 65.915001,126.066505 59.857414,122.993088 
	C53.793964,119.916695 47.292664,117.767036 41.539547,114.036079 
	C34.813782,109.674339 33.643711,106.596695 37.500813,99.535324 
	C41.970051,91.353294 45.783325,82.866791 50.308640,73.896614 
M89.423859,175.499817 
	C92.570320,174.060135 92.865311,171.188446 93.414436,168.241074 
	C88.932640,168.541092 88.932640,168.541092 86.028526,162.649750 
	C83.821213,171.032837 84.223740,172.932190 89.423859,175.499817 
M125.634865,209.353027 
	C127.943741,202.521240 127.814842,195.401428 128.339066,188.349213 
	C127.818710,196.069214 122.866745,203.095718 124.412491,211.663574 
	C124.925751,210.747726 125.164986,210.320831 125.634865,209.353027 
M95.823204,181.490707 
	C96.969017,177.290527 98.114830,173.090347 99.260635,168.890167 
	C95.676949,173.046509 94.021027,177.827820 93.870934,183.228409 
	C95.070747,183.267334 95.357697,182.667709 95.823204,181.490707 
M78.470131,162.060013 
	C78.388458,163.609665 77.688255,165.473480 80.541611,165.735428 
	C81.834457,163.641266 82.664452,161.563889 81.119011,159.196198 
	C79.288483,159.154327 79.206841,160.537079 78.470131,162.060013 
M101.068031,192.777176 
	C102.286156,193.437164 103.112022,195.047073 105.299706,194.245819 
	C105.667244,192.254211 105.508453,190.412949 102.923836,190.030746 
	C101.539703,189.826065 99.623489,189.926559 101.068031,192.777176 
M74.895309,138.368759 
	C75.906570,141.607285 74.902115,145.173569 76.663216,149.280014 
	C76.874603,144.172012 77.204247,140.032639 75.669037,135.938461 
	C74.512901,136.485153 74.564415,137.125824 74.895309,138.368759 
M105.978928,127.585358 
	C106.534836,128.960129 105.619400,131.120117 108.243263,131.588074 
	C110.267281,129.151199 108.623665,127.198685 107.828171,125.093033 
	C106.474251,125.423874 106.187126,126.180191 105.978928,127.585358 
M80.419212,180.146133 
	C78.746956,180.719772 77.945824,181.678040 78.905640,183.452652 
	C82.740082,182.632431 82.740082,182.632431 80.419212,180.146133 
M75.583511,172.503754 
	C75.529808,172.350540 75.508583,172.171463 75.413094,172.051514 
	C75.321571,171.936523 75.056343,171.790176 75.032066,171.815491 
	C73.223488,173.701141 72.826164,175.628937 74.342590,178.200821 
	C76.450165,176.268051 75.201691,174.514297 75.583511,172.503754 
z"/>
<path fill="#000000" opacity="1.000000" stroke="none" 
	d="
M166.034622,59.987617 
	C166.607910,61.790092 168.094498,62.920673 167.770828,65.052162 
	C164.229141,63.766270 162.091827,61.527573 160.986755,57.915977 
	C163.576630,56.578999 164.841339,57.837025 166.034622,59.987617 
z"/>
<path fill="#000000" opacity="1.000000" stroke="none" 
	d="
M163.410904,199.809372 
	C165.652573,203.087830 163.108810,204.809875 161.496689,206.751114 
	C154.553711,215.111359 145.974380,220.555466 134.941376,221.768524 
	C133.015869,221.980225 131.174393,222.956314 128.457672,223.856522 
	C130.774307,220.619492 134.000214,219.043045 134.896133,215.654938 
	C135.167343,214.629303 136.598404,214.199051 137.804855,213.974960 
	C146.786499,212.306732 149.882111,209.179703 149.643799,200.392197 
	C149.477325,194.252975 155.020721,192.439911 157.358810,187.465866 
	C159.744934,191.342896 160.462387,194.845963 159.987473,198.681412 
	C160.757751,199.881027 162.210739,198.955765 163.410904,199.809372 
z"/>
<path fill="#000000" opacity="1.000000" stroke="none" 
	d="
M119.155014,228.292267 
	C117.322235,228.115051 115.659538,228.569611 114.583847,226.202850 
	C118.217735,222.743820 122.088379,224.673737 126.651543,225.170273 
	C124.543907,228.563629 121.949280,228.160324 119.155014,228.292267 
z"/>
</svg>